<svg width="13" height="14" viewBox="0 0 13 14" fill="none" xmlns="http://www.w3.org/2000/svg">
<path d="M10.205 0L9.57125 0.715909L12.025 2.81591V9.46591C12.0088 9.8 11.7163 10.0705 11.3588 10.0545C11.0338 10.0386 10.7738 9.78409 10.7575 9.46591V4.99545C10.7575 4.2 10.1075 3.56364 9.295 3.56364H8.9375V1.54318C8.9375 0.747727 8.2875 0.111364 7.475 0.111364H1.4625C0.65 0.111364 0 0.747727 0 1.54318V13.3636C0 13.7136 0.2925 14 0.65 14H8.2875C8.645 14 8.9375 13.7136 8.9375 13.3636V4.51818H9.295C9.57125 4.51818 9.7825 4.725 9.7825 4.99545V9.46591C9.815 10.3409 10.5463 11.0091 11.44 10.9932C12.285 10.9614 12.9675 10.2932 13 9.46591V2.38636L10.205 0ZM7.29625 6.20455H1.64125V1.86136H7.29625V6.20455Z" fill="#1DA72E"/>
</svg>
