<svg width="12" height="14" viewBox="0 0 12 14" fill="none" xmlns="http://www.w3.org/2000/svg">
<path d="M11.4967 14C11.4967 13.234 11.348 12.4754 11.0592 11.7677C10.7703 11.0599 10.3469 10.4169 9.81307 9.87521C9.27929 9.33354 8.64559 8.90386 7.94817 8.6107C7.25075 8.31755 6.50325 8.16667 5.74836 8.16667C4.99348 8.16667 4.24598 8.31755 3.54856 8.6107C2.85114 8.90386 2.21744 9.33354 1.68366 9.87521C1.14987 10.4169 0.72645 11.0599 0.437568 11.7677C0.148686 12.4754 -6.59942e-08 13.234 0 14H11.4967Z" fill="#1DA72E"/>
<path d="M7.28126 3.88889L4.59869 10.8889H7.28126L9.96383 3.88889H7.28126Z" fill="#1DA72E"/>
<path d="M7.16172 3.88889H7.28126H10.5432C10.8817 3.88889 11.1801 3.66359 11.2774 3.3346L11.9672 1.00127C12.1147 0.502239 11.7465 0 11.233 0H7.85152C7.51305 0 7.21466 0.225297 7.1174 0.554285L6.4276 2.88762C6.28007 3.38665 6.6483 3.88889 7.16172 3.88889Z" fill="#1DA72E"/>
</svg>
